<?xml version="1.0" encoding="utf-8"?>
<!-- Generator: Adobe Illustrator 25.2.3, SVG Export Plug-In . SVG Version: 6.00 Build 0)  -->
<svg version="1.1" id="Layer_1" xmlns="http://www.w3.org/2000/svg" xmlns:xlink="http://www.w3.org/1999/xlink" x="0px" y="0px"
	 viewBox="0 0 100 11.8" style="enable-background:new 0 0 100 11.8;" xml:space="preserve">
<style type="text/css">
	.st0{fill:#E3E035;}
	.st1{fill:#8FC045;}
	.st2{fill:#CB338A;}
	.st3{fill:#FFFFFF;}
</style>
<g id="Layer_2_1_">
	<g id="Layer_1-2">
		<rect x="26.3" y="9.6" class="st0" width="2.3" height="2.3"/>
		<rect x="58.8" class="st1" width="2.3" height="2.3"/>
		<rect x="75.2" y="9.6" class="st2" width="2.3" height="2.3"/>
		<path class="st3" d="M15.2,7.9c-0.1,0.1-0.3,0.2-0.4,0.3c-0.6,0.3-1.2,0.5-1.8,0.5c-0.8,0-1.5-0.3-2-0.8c-0.5-0.5-0.9-1.2-0.8-2
			c0-0.7,0.3-1.4,0.8-1.9c0.5-0.5,1.2-0.8,2-0.8c0.8,0,1.5,0.2,2.1,0.7l0.5,0.4l1.2-1.9l-0.4-0.3C15.3,1.4,14.1,1,13,1.1
			c-0.9,0-1.8,0.2-2.6,0.6c-0.4,0.2-0.7,0.5-1,0.8C9,2.7,8.7,3.1,8.5,3.5C8.3,3.8,8.1,4.2,8,4.6c-0.1,0.5-0.2,1-0.2,1.5
			c0,0.6,0.1,1.2,0.4,1.8C8.5,8.5,8.9,9,9.3,9.4c0.5,0.4,1,0.7,1.6,1c0.6,0.2,1.3,0.3,1.9,0.3c0.3,0,0.7,0,1-0.1
			c0.9-0.1,1.8-0.5,2.5-1.1l0.3-0.3l-0.9-1.8L15.2,7.9z"/>
		<path class="st3" d="M24.2,1.7c-0.8-0.4-1.6-0.6-2.5-0.6c-0.9,0-1.8,0.2-2.6,0.6c-0.4,0.2-0.7,0.4-1,0.7c-0.3,0.3-0.6,0.6-0.8,1
			c-0.2,0.4-0.4,0.8-0.5,1.2c-0.1,0.5-0.2,1-0.2,1.5c0,0.6,0.1,1.2,0.4,1.8C17.2,8.5,17.6,9,18,9.4c0.9,0.8,2.2,1.3,3.4,1.3
			c0.5,0,1,0,1.5-0.2c0.8-0.2,1.6-0.6,2.3-1.2c1-0.9,1.5-2.2,1.5-3.5c0-0.9-0.2-1.7-0.7-2.5C25.6,2.6,24.9,2.1,24.2,1.7z M18.8,5.8
			c0-0.7,0.3-1.4,0.8-1.9c0.3-0.2,0.6-0.4,0.9-0.6c0.4-0.1,0.8-0.2,1.2-0.2c0.5,0,0.9,0.1,1.3,0.4C23.9,4.1,24.5,5,24.4,6
			c0,0.7-0.3,1.4-0.8,1.9c-0.5,0.5-1.2,0.8-2,0.8c-1.2,0-2.2-0.7-2.7-1.7C18.9,6.6,18.8,6.2,18.8,5.8z"/>
		<rect x="63.2" y="1.2" class="st3" width="2.2" height="9.4"/>
		<path class="st3" d="M73,5.4c-0.6-0.3-1.3-0.5-2-0.6l-1-0.2c-0.3,0-0.5-0.1-0.8-0.2c-0.5-0.2-0.5-0.4-0.5-0.4c0-0.1,0-0.3,0.4-0.5
			c0.5-0.2,1.2-0.3,1.8-0.2c0.6,0.1,1.2,0.3,1.8,0.6l0.6,0.3l0.8-2l-0.4-0.2c-0.3-0.1-0.5-0.3-0.8-0.4c-0.8-0.3-1.6-0.5-2.5-0.5
			c-0.9,0-1.8,0.2-2.6,0.7c-0.8,0.5-1.3,1.3-1.3,2.3c0,0.7,0.3,1.3,0.8,1.7c0.5,0.4,1.3,0.7,2.5,0.9l0.8,0.1c0.3,0,0.5,0.1,0.7,0.2
			c0.8,0.2,0.8,0.5,0.8,0.6c0,0.3-0.2,0.6-0.4,0.7c-0.2,0.1-0.4,0.2-0.6,0.2c-0.5,0.1-0.9,0.1-1.4,0c-0.7-0.2-1.4-0.4-2-0.8
			l-0.5-0.3l-1,1.9l0.4,0.3c0.3,0.2,0.5,0.4,0.8,0.5c0.9,0.4,1.9,0.7,2.9,0.7c1,0,1.9-0.2,2.8-0.7c0.4-0.3,0.7-0.6,1-1
			c0.3-0.4,0.4-0.9,0.4-1.4c0-0.5-0.1-0.9-0.3-1.3C73.7,5.9,73.3,5.6,73,5.4z"/>
		<polygon class="st3" points="60,3.3 60,4.9 56,4.9 56,1.2 45.6,1.2 45.6,3.3 48.7,3.3 48.7,10.6 50.9,10.6 50.9,3.3 53.8,3.3 
			53.8,10.6 56,10.6 56,7 60,7 60,10.6 62.2,10.6 62.2,3.3 		"/>
		<polygon class="st3" points="39.1,7 43.6,7 43.6,4.9 39.1,4.9 39,3.3 44.1,3.3 44.1,1.2 36.8,1.2 36.8,10.6 44.3,10.6 44.3,8.5 
			39,8.5 		"/>
		<rect x="76.4" y="1.2" class="st3" width="2.2" height="7.3"/>
		<path class="st3" d="M99.3,5.7c-0.2-0.2-0.4-0.4-0.6-0.5l0-0.1c0.3-0.4,0.5-0.8,0.5-1.3c0-0.9-0.5-1.8-1.3-2.1
			c-0.8-0.3-1.6-0.5-2.5-0.4h-3.6v9l-3.9-9h-1.3l-3.5,7.3h-4.5v2.1h6l0.8-1.8h3.4l0.8,1.8h6c0.7,0,1.4-0.1,2-0.2
			c2-0.6,2.4-1.9,2.4-2.9C100,6.8,99.8,6.2,99.3,5.7z M86.4,6.7l0.5-1.1C87,5.4,87.1,5.2,87.2,5l0,0.1c0.1,0.2,0.2,0.5,0.3,0.7
			l0.4,1H86.4z M94,3.3h1.2c0.4,0,0.9,0,1.3,0.1c0.1,0,0.2,0.1,0.3,0.2c0,0,0.1,0,0.1,0.2c0,0.1,0,0.2-0.1,0.2
			c-0.2,0.3-0.7,0.4-1.4,0.4H94V3.3z M97.6,8c-0.3,0.3-0.9,0.5-1.9,0.5H94v-2h1.7c2,0,2,0.7,2,1C97.7,7.7,97.7,7.8,97.6,8L97.6,8z"
			/>
		<path class="st3" d="M34.9,2.4c-0.9-0.8-2.2-1.3-3.4-1.2h-4v7.3h2.2V3.3h1.6c0.7,0,1.4,0.2,2,0.7C33.8,4.5,34,5.1,34,5.8
			c0,0.7-0.2,1.4-0.7,2c-0.5,0.5-1.2,0.8-1.9,0.7h-1.8v2.1h1.6c1.3,0.1,2.6-0.4,3.6-1.3c0.9-0.9,1.5-2.2,1.4-3.5
			C36.3,4.5,35.8,3.3,34.9,2.4z"/>
		<rect x="3.3" y="1.5" class="st2" width="2.3" height="2.3"/>
		<rect x="3.3" y="8.1" class="st0" width="2.3" height="2.3"/>
		<rect y="4.8" class="st1" width="2.3" height="2.3"/>
	</g>
</g>
</svg>
